# AST/ASF file generated using VICON BodyLanguage
# -----------------------------------------------
:version 1.10
:name VICON
:units
  mass 1.0
  length 0.45
  angle deg
:documentation
   .ast/.asf automatically generated from VICON data using
   VICON BodyBuilder and BodyLanguage model FoxedUp or BRILLIANT.MOD
:root
   order TX TY TZ RX RY RZ
   axis XYZ
   position 0 0 0  
   orientation 0 0 0 
:bonedata
  begin
     id 1 
     name lhipjoint
     direction 0.645893 -0.654526 0.392961 
     length 2.38111 
     axis 0 0 0  XYZ
  end
  begin
     id 2 
     name lfemur
     direction 0.34202 -0.939693 0  
     length 6.6822  
     axis 0 0 20  XYZ
    dof rx ry rz
    limits (-160.0 20.0)
           (-70.0 70.0)
           (-60.0 70.0)
  end
  begin
     id 3 
     name ltibia
     direction 0.34202 -0.939693 0   
     length 6.93904   
     axis 0 0 20   XYZ
    dof rx
    limits (-10.0 170.0)
  end
  begin
     id 4 
     name lfoot
     direction 0.0694967 -0.190941 0.979138   
     length 2.13616   
     axis -90 7.62852e-016 20   XYZ
    dof rx rz
    limits (-45.0 90.0)
           (-70.0 20.0)
  end
  begin
     id 5 
     name ltoes
     direction 1.535e-011 -4.2202e-011 1   
     length 1.07536   
     axis -90 7.62852e-016 20   XYZ
    dof rx
    limits (-90.0 20.0)
  end
  begin
     id 6 
     name rhipjoint
     direction -0.700219 -0.612087 0.367481   
     length 2.54621  
     axis 0 0 0  XYZ 
  end
  begin
     id 7 
     name rfemur
     direction -0.34202 -0.939693 0   
     length 6.55353   
     axis 0 0 -20   XYZ
    dof rx ry rz
    limits (-160.0 20.0)
           (-70.0 70.0)
           (-70.0 60.0)
  end
  begin
     id 8 
     name rtibia
     direction -0.34202 -0.939693 0   
     length 6.8736   
     axis 0 0 -20   XYZ
    dof rx
    limits (-10.0 170.0)
 end
 begin
     id 9 
     name rfoot
     direction -0.0679995 -0.186827 0.980037   
     length 2.1218  
     axis -90 -7.62852e-016 -20   XYZ
    dof rx rz
    limits (-45.0 90.0)
           (-20.0 70.0)
  end
  begin
     id 10 
     name rtoes
     direction -1.53589e-011 -4.21772e-011 1   
     length 1.06864   
     axis -90 -7.62852e-016 -20   XYZ
    dof rx
    limits (-90.0 20.0)
  end
  begin
     id 11 
     name lowerback
     direction -0.0416607 0.996347 -0.0745409   
     length 2.12205   
     axis 0 0 0   XYZ
    dof rx ry rz
    limits (-20.0 45.0)
           (-30.0 30.0)
           (-30.0 30.0)
  end
  begin
     id 12 
     name upperback
     direction -0.000153993 0.999276 -0.0380568   
     length 2.12759   
     axis 0 0 0   XYZ
    dof rx ry rz
    limits (-20.0 45.0)
           (-30.0 30.0)
           (-30.0 30.0)
  end
  begin
     id 13 
     name thorax
     direction 0.0187671 0.999821 -0.00241421   
     length 2.13704   
     axis 0 0 0   XYZ
    dof rx ry rz
    limits (-20.0 45.0)
           (-30.0 30.0)
           (-30.0 30.0)
  end
  begin
     id 14 
     name lowerneck
     direction 0.0268157 0.964865 0.261374   
     length 1.65253   
     axis 0 0 0   XYZ
    dof rx ry rz
    limits (-20.0 45.0)
           (-30.0 30.0)
           (-30.0 30.0)
  end
  begin
     id 15 
     name upperneck
     direction 0.00263774 0.939908 -0.341418   
     length 1.72375   
     axis 0 0 0   XYZ
    dof rx ry rz
    limits (-20.0 45.0)
           (-30.0 30.0)
           (-30.0 30.0)
  end
  begin
     id 16
     name head
     direction -0.00526001 0.989001 -0.147818  
     length 1.74878  
     axis 0 0 0   XYZ
    dof rx ry rz
    limits (-20.0 45.0)
           (-30.0 30.0)
           (-30.0 30.0)
  end
  begin
     id 17 
     name lclavicle
     direction 0.881214 0.461162 -0.103884  
     length 3.25108  
     axis 0 0 0   XYZ
    dof ry rz
    limits (-20.0 10.0)
           (0.0 20.0)
  end
  begin
     id 18 
     name lhumerus
     direction 1 -4.4899e-011 3.38092e-027   
     length 4.87408   
     axis 180 -30 -90   XYZ
    dof rx ry rz
    limits (-60.0 90.0)
           (-90.0 90.0)
           (-90.0 90.0)
  end
  begin
     id 19
     name lradius
     direction 1 -4.48931e-011 9.96288e-027   
     length 2.76729   
     axis 180 -30 -90   XYZ
    dof rx
    limits (-10.0 170.0)
  end
  begin
     id 20
     name lwrist
     direction 1 -4.4896e-011 1.50617e-026   
     length 1.38364   
     axis -9.31234e-015 90 90   XYZ
    dof ry
    limits (-180.0 0.0)
 end
  begin
     id 21 
     name lhand
     direction 1 -4.49038e-011 3.01286e-026   
     length 0.98922   
     axis -1.92217e-014 90 90   XYZ
    dof rx rz
    limits (-90.0 90.0)
           (-45.0 45.0)
  end
  begin
     id 22 
     name lfingers
     direction 1 -4.49051e-011 6.02588e-026   
     length 0.797535   
     axis -3.84436e-014 90 90   XYZ
    dof rx
    limits (0.0 90.0)
  end
  begin
     id 23
     name lthumb
     direction 0.707107 -6.34901e-011 0.707107   
     length 1.14511   
     axis -90 45 2.19363e-014   XYZ
    dof rx rz
    limits (-45.0 45.0)
           (-45.0 45.0)
  end
  begin
     id 24 
     name rclavicle
     direction -0.893894 0.441652 -0.0767889   
     length 3.29361  
     axis 0 0 0   XYZ 
    dof ry rz
    limits (-10.0 20.0)
           (-20.0 0.0)
  end
  begin
     id 25 
     name rhumerus
     direction -1 -4.48945e-011 8.0491e-028  
     length 4.71404   
     axis 180 30 90   XYZ
    dof rx ry rz
    limits (-90.0 60.0)
           (-90.0 90.0)
           (-90.0 90.0)
  end
  begin
     id 26 
     name rradius
     direction -1 -4.48986e-011 9.27795e-027   
     length 2.83468   
     axis 180 30 90   XYZ
    dof rx
    limits (-10.0 170.0)
  end
  begin
     id 27 
     name rwrist
     direction -1 -4.49029e-011 1.5064e-026   
     length 1.41734   
     axis -9.31234e-015 -90 -90   XYZ
    dof ry
    limits (-180.0 0.0)
  end
  begin
     id 28
     name rhand
     direction -1 -4.48857e-011 3.01165e-026   
     length 0.868195   
     axis -1.92217e-014 -90 -90   XYZ
    dof rx rz
    limits (-90.0 90.0)
           (-45.0 45.0)
  end
  begin
     id 29
     name rfingers
     direction -1 -4.49048e-011 6.02585e-026   
     length 0.699961   
     axis -3.84436e-014 -90 -90   XYZ
    dof rx
    limits (0.0 90.0)
  end
  begin
     id 30
     name rthumb
     direction -0.707107 -6.34854e-011 0.707107   
     length 1.00501   
     axis -90 -45 -2.19363e-014   XYZ
    dof rx rz
    limits (-45.0 45.0)
           (-45.0 45.0)
  end
:hierarchy
  begin
    root lhipjoint rhipjoint lowerback
    lhipjoint lfemur
    lfemur ltibia
    ltibia lfoot
    lfoot ltoes
    rhipjoint rfemur
    rfemur rtibia
    rtibia rfoot
    rfoot rtoes
    lowerback upperback
    upperback thorax
    thorax lowerneck lclavicle rclavicle
    lowerneck upperneck
    upperneck head
    lclavicle lhumerus
    lhumerus lradius
    lradius lwrist
    lwrist lhand lthumb
    lhand lfingers
    rclavicle rhumerus
    rhumerus rradius
    rradius rwrist
    rwrist rhand rthumb
    rhand rfingers
  end

#!OML:ASF H:\ManfredObstacles\Project 1\Capture day 2\Session 1\male.ASF
:FULLY-SPECIFIED
:DEGREES
49
root -12.3473 16.8237 12.3655 -168.258 -6.1846 166.831
lowerback -4.06012 -6.35497 -7.50299
upperback 4.06336 -8.14357 -1.77819
thorax 7.33235 -4.42475 1.36598
lowerneck -42.214 -0.568443 1.54012
upperneck 43.0179 1.164 -0.978491
head 29.9579 1.23952 -0.128319
rclavicle 2.31584e-014 -1.51076e-014
rhumerus -70.8984 -6.88758 -69.8288
rradius 51.6932
rwrist 11.4572
rhand -10.3611 -4.895
rfingers 7.12502
rthumb 15.6359 -34.2831
lclavicle 2.31584e-014 -1.51076e-014
lhumerus -29.5405 -28.616 89.4663
lradius 99.1495
lwrist -20.3285
lhand -16.6094 5.10318
lfingers 7.12502
lthumb 9.6122 34.8639
rfemur -47.2055 1.95666 11.6331
rtibia 31.7123
rfoot 11.9926 -24.6706
rtoes -18.8945
lfemur 13.1785 -4.09551 -25.871
ltibia 10.6859
lfoot 47.7532 -4.79215
ltoes 10.8823
50
root -12.2911 16.8259 11.9981 -168.26 -5.8591 166.45
lowerback -4.30478 -6.5169 -7.70163
upperback 3.70687 -8.31667 -1.71802
thorax 7.14636 -4.49849 1.51025
lowerneck -41.0692 -0.588271 1.28055
upperneck 43.056 1.58869 -1.15603
head 29.4319 1.32111 -0.0340361
rclavicle 1.43821e-013 4.05521e-014
rhumerus -71.2892 -6.20506 -69.5924
rradius 51.8973
rwrist 11.2269
rhand -10.2234 -4.83642
rfingers 7.12502
rthumb 15.7685 -34.2141
lclavicle 1.43821e-013 4.05521e-014
lhumerus -30.7963 -28.2702 90.1399
lradius 99.0544
lwrist -20.3461
lhand -16.3659 4.93213
lfingers 7.12502
lthumb 9.84718 34.6819
rfemur -46.646 1.73139 11.8296
rtibia 30.5903
rfoot 12.1773 -25.7686
rtoes -18.6503
lfemur 13.012 -4.44122 -26.2133
ltibia 11.904
lfoot 48.9347 -5.31049
ltoes 12.6077
51
root -12.2337 16.8128 11.6324 -168.334 -5.51656 166.083
lowerback -4.4891 -6.59776 -7.89683
upperback 3.50102 -8.39168 -1.68595
thorax 7.07402 -4.53342 1.63044
lowerneck -40.3375 -0.677499 0.964397
upperneck 43.0818 1.82611 -1.23708
head 29.0989 1.33983 0.0631392
rclavicle 1.27222e-014 3.02153e-014
rhumerus -71.3525 -5.72269 -69.4786
rradius 52.0652
rwrist 10.9952
rhand -10.0699 -4.84709
rfingers 7.12502
rthumb 15.9163 -34.2131
lclavicle 1.27222e-014 3.02153e-014
lhumerus -31.6952 -28.0381 90.6699
lradius 98.8692
lwrist -20.3484
lhand -16.1228 4.77883
lfingers 7.12502
lthumb 10.0817 34.5173
rfemur -46.1085 1.33957 12.2237
rtibia 30.0588
rfoot 12.2773 -26.7274
rtoes -18.1705
lfemur 12.6207 -4.76431 -26.5576
ltibia 13.6346
lfoot 49.0763 -5.99781
ltoes 13.2645
52
root -12.1751 16.7841 11.2688 -168.483 -5.14671 165.764
lowerback -4.62643 -6.56219 -8.04258
upperback 3.49746 -8.32121 -1.70765
thorax 7.1612 -4.50688 1.67724
lowerneck -40.1573 -0.847202 0.62967
upperneck 43.0866 1.79747 -1.19598
head 29.0049 1.27367 0.144672
rclavicle 3.77691e-014 -3.97569e-016
rhumerus -71.0351 -5.58865 -69.4918
rradius 52.1529
rwrist 10.8519
rhand -9.94836 -4.86529
rfingers 7.12502
rthumb 16.0334 -34.2219
lclavicle 3.77691e-014 -3.97569e-016
lhumerus -32.1253 -28.0454 90.9763
lradius 98.563
lwrist -20.3958
lhand -15.9505 4.67157
lfingers 7.12502
lthumb 10.248 34.4019
rfemur -45.5626 0.787946 12.8427
rtibia 30.0261
rfoot 12.3666 -27.4041
rtoes -17.5747
lfemur 12.055 -5.03125 -26.8664
ltibia 15.8056
lfoot 48.2992 -6.68229
ltoes 13.131
53
root -12.1157 16.7395 10.9077 -168.699 -4.73111 165.509
lowerback -4.6986 -6.45495 -8.16303
upperback 3.46147 -8.16231 -1.77311
thorax 7.15576 -4.43295 1.69001
lowerneck -39.8949 -1.00586 0.490618
upperneck 43.1096 1.67437 -1.21475
head 28.9001 1.21706 0.11747
rclavicle -4.41302e-014 2.62396e-014
rhumerus -70.778 -5.48945 -69.6158
rradius 52.1793
rwrist 10.8698
rhand -9.89413 -4.84323
rfingers 7.12502
rthumb 16.0856 -34.1956
lclavicle -4.41302e-014 2.62396e-014
lhumerus -32.7424 -28.1429 91.329
lradius 98.2283
lwrist -20.5053
lhand -15.8507 4.573
lfingers 7.12502
lthumb 10.3441 34.2986
rfemur -44.9821 0.0967794 13.6765
rtibia 30.3812
rfoot 12.5156 -27.6755
rtoes -16.9706
lfemur 11.3367 -5.21414 -27.122
ltibia 18.3658
lfoot 46.8461 -7.13088
ltoes 12.5317
54
root -12.0557 16.6792 10.5493 -168.982 -4.25395 165.336
lowerback -4.67666 -6.32441 -8.27495
upperback 3.21871 -7.98181 -1.85185
thorax 6.86815 -4.33371 1.7181
lowerneck -39.0901 -1.10652 0.587562
upperneck 43.1488 1.59173 -1.37086
head 28.555 1.22212 -0.0247708
rclavicle 8.82604e-014 -3.1408e-014
rhumerus -70.8768 -5.14454 -69.828
rradius 52.1868
rwrist 10.9819
rhand -9.90412 -4.73561
rfingers 7.12502
rthumb 16.076 -34.0888
lclavicle 8.82604e-014 -3.1408e-014
lhumerus -33.9993 -28.1442 91.9323
lradius 97.9242
lwrist -20.7045
lhand -15.7985 4.49581
lfingers 7.12502
lthumb 10.3945 34.2189
rfemur -44.3377 -0.69109 14.704
rtibia 31.0196
rfoot 12.8021 -27.41
rtoes -14.8728
lfemur 10.5005 -5.24965 -27.2909
ltibia 21.2452
lfoot 45.0579 -7.27945
ltoes 11.8115
55
root -11.9956 16.604 10.1945 -169.311 -3.7007 165.25
lowerback -4.57548 -6.16629 -8.3669
upperback 2.79767 -7.77775 -1.92837
thorax 6.34003 -4.20964 1.7652
lowerneck -37.7107 -1.18888 0.848274
upperneck 43.2056 1.5354 -1.62791
head 27.962 1.27469 -0.24435
rclavicle 3.57812e-015 2.70347e-014
rhumerus -71.2481 -4.60267 -70.0906
rradius 52.1315
rwrist 11.3444
rhand -10.0336 -4.44256
rfingers 7.12502
rthumb 15.9513 -33.8057
lclavicle 3.57812e-015 2.70347e-014
lhumerus -35.7943 -28.0341 92.7458
lradius 97.6523
lwrist -20.9316
lhand -15.7954 4.43911
lfingers 7.12502
lthumb 10.3976 34.162
rfemur -43.6295 -1.54985 15.896
rtibia 31.87
rfoot 13.0896 -26.399
rtoes -12.8506
lfemur 9.55816 -5.1347 -27.3644
ltibia 24.3846
lfoot 43.2466 -6.99481
ltoes 11.0882
56
root -11.9361 16.5155 9.84292 -169.674 -3.05673 165.229
lowerback -4.38706 -6.03429 -8.45309
upperback 2.19358 -7.62671 -1.93674
thorax 5.58447 -4.09914 1.89531
lowerneck -36.1139 -1.21856 1.12948
upperneck 43.2879 1.67062 -1.99671
head 27.3263 1.3873 -0.463768
rclavicle 5.50634e-014 3.26007e-014
rhumerus -71.7956 -3.65379 -70.3925
rradius 52.0784
rwrist 11.834
rhand -10.2472 -4.05205
rfingers 7.12502
rthumb 15.7456 -33.4316
lclavicle 5.50634e-014 3.26007e-014
lhumerus -38.0776 -27.5702 93.7971
lradius 97.4183
lwrist -21.237
lhand -15.843 4.39739
lfingers 7.12502
lthumb 10.3517 34.1226
rfemur -42.8569 -2.39075 17.1463
rtibia 32.8961
rfoot 12.9675 -24.8349
rtoes -10.8415
lfemur 8.53436 -4.83793 -27.3538
ltibia 27.711
lfoot 41.6379 -6.30333
ltoes 10.5345
57
root -11.8772 16.4157 9.49587 -170.047 -2.33109 165.283
lowerback -4.15333 -5.86717 -8.48593
upperback 1.56557 -7.44527 -1.91645
thorax 4.77543 -3.96952 2.03329
lowerneck -34.4536 -1.2605 1.40504
upperneck 43.3483 1.80522 -2.36922
head 26.652 1.50016 -0.678573
rclavicle 7.81224e-014 3.89618e-014
rhumerus -72.2765 -2.66497 -70.7403
rradius 52.0257
rwrist 12.4071
rhand -10.502 -3.61969
rfingers 7.12502
rthumb 15.5002 -33.0184
lclavicle 7.81224e-014 3.89618e-014
lhumerus -40.4032 -26.9873 94.8324
lradius 97.1708
lwrist -21.5801
lhand -15.8815 4.37381
lfingers 7.12502
lthumb 10.3145 34.1009
rfemur -42.0347 -3.14733 18.417
rtibia 34.0938
rfoot 11.9833 -23.0511
rtoes -9.25674
lfemur 7.42233 -4.36145 -27.2302
ltibia 31.1653
lfoot 40.3107 -5.27025
ltoes 10.0675
58
root -11.8191 16.308 9.15307 -170.42 -1.53178 165.385
lowerback -3.90322 -5.64983 -8.45422
upperback 1.05277 -7.20356 -1.88132
thorax 4.06938 -3.81451 2.14677
lowerneck -33.1924 -1.34234 1.54223
upperneck 43.3769 1.85748 -2.62697
head 26.1282 1.55858 -0.82491
rclavicle 1.6201e-014 2.70347e-014
rhumerus -72.4413 -1.79459 -71.1359
rradius 51.9899
rwrist 13.0093
rhand -10.7914 -3.20099
rfingers 7.12502
rthumb 15.2214 -32.621
lclavicle 1.6201e-014 2.70347e-014
lhumerus -42.4186 -26.3925 95.7028
lradius 96.876
lwrist -21.8944
lhand -15.944 4.39206
lfingers 7.12502
lthumb 10.2542 34.1221
rfemur -41.1739 -3.71101 19.5925
rtibia 35.461
rfoot 10.043 -21.4186
rtoes -8.38279
lfemur 6.23903 -3.74013 -27.0214
ltibia 34.6983
lfoot 39.2142 -3.99767
ltoes 9.58072
